<mxfile host="www.draw.io" modified="2019-11-19T21:37:58.812Z" agent="Mozilla/5.0 (Windows NT 10.0; WOW64) AppleWebKit/537.36 (KHTML, like Gecko) Chrome/78.0.3904.87 Safari/537.36" etag="C-W4Wshl7-Xb6BaFal7R" version="12.2.7" type="github" pages="1">
  <diagram id="afgf8XY-Uz3RF6w87Orz" name="Page-1">
    <mxGraphModel dx="1408" dy="748" grid="1" gridSize="10" guides="1" tooltips="1" connect="1" arrows="1" fold="1" page="1" pageScale="1" pageWidth="850" pageHeight="1100" math="0" shadow="0">
      <root>
        <mxCell id="0"/>
        <mxCell id="1" parent="0"/>
        <mxCell id="l-Ivg3MEavScs8ukIETI-1" value="&lt;b&gt;Client Applications&lt;/b&gt;" style="rounded=1;whiteSpace=wrap;html=1;verticalAlign=bottom;dashed=1;" parent="1" vertex="1">
          <mxGeometry x="160" y="20" width="480" height="180" as="geometry"/>
        </mxCell>
        <mxCell id="l-Ivg3MEavScs8ukIETI-2" value="MUSE" style="rounded=0;whiteSpace=wrap;html=1;" parent="1" vertex="1">
          <mxGeometry x="190" y="40" width="120" height="60" as="geometry"/>
        </mxCell>
        <mxCell id="l-Ivg3MEavScs8ukIETI-3" value="RECO" style="rounded=0;whiteSpace=wrap;html=1;" parent="1" vertex="1">
          <mxGeometry x="190" y="120" width="120" height="60" as="geometry"/>
        </mxCell>
        <mxCell id="l-Ivg3MEavScs8ukIETI-4" value="MDC" style="rounded=0;whiteSpace=wrap;html=1;" parent="1" vertex="1">
          <mxGeometry x="340" y="40" width="120" height="60" as="geometry"/>
        </mxCell>
        <mxCell id="l-Ivg3MEavScs8ukIETI-5" value="BOSE" style="rounded=0;whiteSpace=wrap;html=1;" parent="1" vertex="1">
          <mxGeometry x="500" y="40" width="120" height="60" as="geometry"/>
        </mxCell>
        <mxCell id="l-Ivg3MEavScs8ukIETI-7" value="&lt;b&gt;Drug Service&lt;/b&gt;" style="rounded=1;whiteSpace=wrap;html=1;dashed=1;verticalAlign=bottom;" parent="1" vertex="1">
          <mxGeometry x="160" y="280" width="490" height="230" as="geometry"/>
        </mxCell>
        <mxCell id="l-Ivg3MEavScs8ukIETI-8" value="Drug Name API" style="rounded=1;whiteSpace=wrap;html=1;fillColor=#d5e8d4;strokeColor=#82b366;" parent="1" vertex="1">
          <mxGeometry x="190" y="300" width="120" height="60" as="geometry"/>
        </mxCell>
        <mxCell id="l-Ivg3MEavScs8ukIETI-9" value="Drug Dosage API" style="rounded=0;whiteSpace=wrap;html=1;fillColor=#d5e8d4;strokeColor=#82b366;" parent="1" vertex="1">
          <mxGeometry x="345" y="300" width="120" height="60" as="geometry"/>
        </mxCell>
        <mxCell id="l-Ivg3MEavScs8ukIETI-10" value="Drug Price API" style="rounded=0;whiteSpace=wrap;html=1;fillColor=#d5e8d4;strokeColor=#82b366;" parent="1" vertex="1">
          <mxGeometry x="500" y="300" width="120" height="60" as="geometry"/>
        </mxCell>
        <mxCell id="l-Ivg3MEavScs8ukIETI-11" value="Plan Monthly Drug Costs API" style="rounded=0;whiteSpace=wrap;html=1;fillColor=#d5e8d4;strokeColor=#82b366;" parent="1" vertex="1">
          <mxGeometry x="190" y="395" width="120" height="60" as="geometry"/>
        </mxCell>
        <mxCell id="l-Ivg3MEavScs8ukIETI-12" value="Estimated Annual Drug Savings API" style="rounded=0;whiteSpace=wrap;html=1;fillColor=#d5e8d4;strokeColor=#82b366;" parent="1" vertex="1">
          <mxGeometry x="350" y="395" width="120" height="60" as="geometry"/>
        </mxCell>
        <mxCell id="l-Ivg3MEavScs8ukIETI-15" value="persistence" style="rounded=1;whiteSpace=wrap;html=1;dashed=1;verticalAlign=bottom;fontStyle=1" parent="1" vertex="1">
          <mxGeometry x="760" y="280" width="120" height="230" as="geometry"/>
        </mxCell>
        <mxCell id="l-Ivg3MEavScs8ukIETI-16" value="mcratedb" style="shape=datastore;whiteSpace=wrap;html=1;" parent="1" vertex="1">
          <mxGeometry x="790" y="365" width="60" height="60" as="geometry"/>
        </mxCell>
        <mxCell id="l-Ivg3MEavScs8ukIETI-19" value="" style="shape=flexArrow;endArrow=classic;startArrow=classic;html=1;width=18;startSize=6.74;exitX=1;exitY=0.5;exitDx=0;exitDy=0;entryX=0;entryY=0.5;entryDx=0;entryDy=0;" parent="1" source="l-Ivg3MEavScs8ukIETI-7" target="l-Ivg3MEavScs8ukIETI-15" edge="1">
          <mxGeometry width="50" height="50" relative="1" as="geometry">
            <mxPoint x="680" y="440" as="sourcePoint"/>
            <mxPoint x="750" y="440" as="targetPoint"/>
          </mxGeometry>
        </mxCell>
        <mxCell id="l-Ivg3MEavScs8ukIETI-20" value="" style="shape=flexArrow;endArrow=classic;startArrow=classic;html=1;exitX=0.5;exitY=0;exitDx=0;exitDy=0;width=11;endSize=6.46;" parent="1" source="l-Ivg3MEavScs8ukIETI-7" edge="1">
          <mxGeometry width="50" height="50" relative="1" as="geometry">
            <mxPoint x="360" y="260" as="sourcePoint"/>
            <mxPoint x="405" y="206" as="targetPoint"/>
          </mxGeometry>
        </mxCell>
      </root>
    </mxGraphModel>
  </diagram>
</mxfile>
